<svg xmlns="http://www.w3.org/2000/svg" xmlns:xlink="http://www.w3.org/1999/xlink" viewBox="0 0 805.9 274.26"><defs><style>.cls-1{fill:#aaad10;}.cls-2,.cls-7{opacity:0.29;}.cls-2{fill:url(#linear-gradient);}.cls-3{fill:#a0b50d;}.cls-4{fill:#b4c110;}.cls-5{fill:#afbc0f;}.cls-6{fill:#fff;}.cls-7{fill:url(#linear-gradient-2);}.cls-8{fill:#dde200;}.cls-9{fill:#d1d100;}.cls-10{fill:#f4f4f4;}.cls-11,.cls-12{fill:#808907;}.cls-11{opacity:0.42;}.cls-12{opacity:0.36;}.cls-13{fill:#9aa50e;}</style><linearGradient id="linear-gradient" x1="402.42" y1="12.09" x2="402.42" y2="144.35" gradientUnits="userSpaceOnUse"><stop offset="0" stop-color="#fff"/><stop offset="0.26" stop-color="#fdfdfd" stop-opacity="0.99"/><stop offset="0.4" stop-color="#f5f5f5" stop-opacity="0.96"/><stop offset="0.51" stop-color="#e7e7e7" stop-opacity="0.91"/><stop offset="0.6" stop-color="#d4d4d4" stop-opacity="0.83"/><stop offset="0.68" stop-color="#bbb" stop-opacity="0.73"/><stop offset="0.76" stop-color="#9d9d9d" stop-opacity="0.61"/><stop offset="0.83" stop-color="#787878" stop-opacity="0.47"/><stop offset="0.9" stop-color="#4e4e4e" stop-opacity="0.31"/><stop offset="0.96" stop-color="#1f1f1f" stop-opacity="0.12"/><stop offset="1" stop-opacity="0"/></linearGradient><linearGradient id="linear-gradient-2" x1="402.42" y1="12.09" x2="402.42" y2="144.35" gradientUnits="userSpaceOnUse"><stop offset="0" stop-color="#fff"/><stop offset="0.09" stop-color="#f7f7f7" stop-opacity="0.97"/><stop offset="0.22" stop-color="#e1e1e1" stop-opacity="0.88"/><stop offset="0.38" stop-color="#bebebe" stop-opacity="0.74"/><stop offset="0.57" stop-color="#8c8c8c" stop-opacity="0.55"/><stop offset="0.78" stop-color="#4d4d4d" stop-opacity="0.3"/><stop offset="1" stop-opacity="0"/></linearGradient></defs><title>spachshipsvg</title><g id="Layer_2" data-name="Layer 2"><g id="Layer_5_copy" data-name="Layer 5 copy"><path class="cls-1" d="M496.75,35.21l0,0C445.59,7.94,380.69-4,308.48,35.26l0-.12C395.9-21.33,439.58-1,496.75,35.21Z"/><path class="cls-2" d="M191.33,144.35H613.51S419.38-153.24,191.33,144.35Z"/><path class="cls-3" d="M783.62,217.72a0,0,0,0,1,0,0c-58.18,14.6-383.48,87.57-761.32,0-24.09-.2-31-26.56-8.88-34.36C356,62.7,653.62,134.3,792.5,183.35,814.65,191.18,807.71,217.52,783.62,217.72Z"/><path class="cls-4" d="M558.45,188.59a154.88,154.88,0,0,1-14.62,65.91,1788,1788,0,0,1-281.73.06,155.85,155.85,0,0,1-1.3-129.08,1179.37,1179.37,0,0,1,284.5.46A154.73,154.73,0,0,1,558.45,188.59Z"/><path class="cls-5" d="M521.33,250.11H283.51q4.6,8.3,9.17,15.81a7.63,7.63,0,0,0,6.39,4s76.24,4.3,101.65,4.3c26.43,0,105.71-4.3,105.71-4.3a7.71,7.71,0,0,0,6.49-4.21C518.39,256.35,521.33,250.11,521.33,250.11Z"/><rect class="cls-6" x="271" y="155.87" width="266" height="78.88" rx="12" ry="12"/><path class="cls-7" d="M191.33,144.35H613.51S419.38-153.24,191.33,144.35Z"/><path class="cls-5" d="M660,146.76H144.84q10-12.41,19.86-23.64a18.42,18.42,0,0,1,13.83-6H627.69a18.41,18.41,0,0,1,14.05,6.29C653.62,137.43,660,146.76,660,146.76Z"/><circle class="cls-8" cx="404.42" cy="131.92" r="8.22"/><path class="cls-9" d="M404.37,123.7v16.44a8.22,8.22,0,0,1,0-16.44Z"/><circle class="cls-8" cx="334.42" cy="131.92" r="8.22"/><path class="cls-9" d="M334.37,123.7v16.44a8.22,8.22,0,0,1,0-16.44Z"/><circle class="cls-8" cx="474.42" cy="131.92" r="8.22"/><path class="cls-9" d="M474.37,123.7v16.44a8.22,8.22,0,0,1,0-16.44Z"/><circle class="cls-8" cx="264.42" cy="131.92" r="8.22"/><path class="cls-9" d="M264.37,123.7v16.44a8.22,8.22,0,0,1,0-16.44Z"/><circle class="cls-8" cx="544.42" cy="131.92" r="8.22"/><path class="cls-9" d="M544.37,123.7v16.44a8.22,8.22,0,0,1,0-16.44Z"/><circle class="cls-8" cx="614.42" cy="131.92" r="8.22"/><path class="cls-9" d="M614.37,123.7v16.44a8.22,8.22,0,0,1,0-16.44Z"/><circle class="cls-8" cx="194.42" cy="131.92" r="8.22"/><path class="cls-9" d="M194.37,123.7v16.44a8.22,8.22,0,0,1,0-16.44Z"/><circle class="cls-8" cx="404.42" cy="261.92" r="7.67"/><path class="cls-9" d="M404.37,254.26v15.33a7.67,7.67,0,0,1,0-15.33Z"/><circle class="cls-8" cx="348.46" cy="261.92" r="7.67"/><path class="cls-9" d="M348.41,254.26v15.33a7.67,7.67,0,0,1,0-15.33Z"/><circle class="cls-8" cx="460.38" cy="261.92" r="7.67"/><path class="cls-9" d="M460.34,254.26v15.33a7.67,7.67,0,0,1,0-15.33Z"/><path class="cls-10" d="M537,203.76v15.71c0,8.41-5.4,15.29-12,15.29H283c-6.6,0-12-6.88-12-15.29V203.76Z"/><rect class="cls-11" x="145.25" y="144.38" width="515" height="3.38" rx="1.69" ry="1.69"/><rect class="cls-12" x="281.58" y="248.38" width="242.33" height="3.38" rx="1.69" ry="1.69"/><path class="cls-7" d="M191.33,144.35H613.51S419.38-153.24,191.33,144.35Z"/><path class="cls-13" d="M141.9,188.59c0,19.17,5.82,37.53,16.47,54.48-44.31-6.31-89.81-14.62-136.09-25.35-24.09-.2-31-26.56-8.88-34.36A1166.67,1166.67,0,0,1,153,143.7,98.75,98.75,0,0,0,141.9,188.59Z"/><path class="cls-13" d="M783.62,217.72a0,0,0,0,1,0,0c-19.11,4.8-67,15.89-136.18,25.52,10.72-17,16.58-35.42,16.58-54.65a98.47,98.47,0,0,0-10.85-44.47A1145.06,1145.06,0,0,1,792.5,183.35C814.65,191.18,807.71,217.52,783.62,217.72Z"/></g></g></svg>